<svg width="11" height="10" viewBox="0 0 11 10" fill="none" xmlns="http://www.w3.org/2000/svg">
<path d="M10.1333 3.52128L6.99407 3.06505L5.59075 0.220085C5.55243 0.142191 5.48937 0.0791345 5.41148 0.0408059C5.21612 -0.0556336 4.97873 0.0247327 4.88106 0.220085L3.47774 3.06505L0.338508 3.52128C0.25196 3.53365 0.17283 3.57445 0.112246 3.63627C0.0390037 3.71155 -0.00135622 3.81283 3.47997e-05 3.91785C0.00142582 4.02287 0.044454 4.12305 0.119665 4.19636L2.39094 6.41076L1.85434 9.53763C1.84176 9.61037 1.84981 9.68517 1.87757 9.75357C1.90534 9.82197 1.95172 9.88121 2.01145 9.92459C2.07118 9.96797 2.14186 9.99375 2.21549 9.999C2.28912 10.0042 2.36275 9.98876 2.42803 9.9543L5.23591 8.47803L8.04378 9.9543C8.12044 9.9951 8.20946 10.0087 8.29477 9.99386C8.50991 9.95677 8.65456 9.75276 8.61747 9.53763L8.08087 6.41076L10.3521 4.19636C10.414 4.13578 10.4548 4.05665 10.4671 3.9701C10.5005 3.75373 10.3497 3.55343 10.1333 3.52128Z" fill="#8B6CCA"/>
</svg>
