<svg width="140" height="25" viewBox="0 0 140 25" fill="none" xmlns="http://www.w3.org/2000/svg">
<path d="M40.6557 0.268813H35.2458L31.4824 23.7901H34.8762L35.5146 19.5227H40.0509L40.6893 23.7901H44.4191L40.6557 0.268813ZM37.766 4.43544L39.5469 16.3305H35.9851L37.766 4.43544Z" fill="#636969"/>
<path d="M57.6323 23.7901C57.2627 22.9165 57.229 22.0764 57.229 20.934V17.305C57.229 14.852 56.6242 13.0711 54.7761 12.2983C56.4226 11.5254 57.1954 9.94615 57.1954 7.52681V5.67871C57.1954 2.04971 55.549 0.268813 51.7183 0.268813H46.1404V23.7901H49.8366V14.2136H51.1135C52.7936 14.2136 53.5328 15.02 53.5328 17.2041V20.9004C53.5328 22.8157 53.6673 23.1853 53.8689 23.7901H57.6323ZM51.6175 3.629C52.928 3.629 53.4992 4.36824 53.4992 6.04833V8.36686C53.4992 10.2486 52.6592 10.8534 51.2815 10.8534H49.8366V3.629H51.6175Z" fill="#636969"/>
<path d="M63.0537 5.67871C63.0537 3.99862 63.793 3.36018 64.969 3.36018C66.1451 3.36018 66.8843 3.99862 66.8843 5.67871V18.3802C66.8843 20.0603 66.1451 20.6987 64.969 20.6987C63.793 20.6987 63.0537 20.0603 63.0537 18.3802V5.67871ZM59.3575 18.145C59.3575 21.9084 61.34 24.0589 64.969 24.0589C68.598 24.0589 70.5805 21.9084 70.5805 18.145V5.91393C70.5805 2.15052 68.598 0 64.969 0C61.34 0 59.3575 2.15052 59.3575 5.91393V18.145Z" fill="#636969"/>
<path d="M78.426 0.268813H72.9825V23.7901H76.6787V14.9528H78.426C82.1222 14.9528 83.9367 12.9031 83.9367 9.1397V6.08194C83.9367 2.31853 82.1222 0.268813 78.426 0.268813ZM78.426 3.629C79.6021 3.629 80.2405 4.16663 80.2405 5.84672V9.37492C80.2405 11.055 79.6021 11.5926 78.426 11.5926H76.6787V3.629H78.426Z" fill="#636969"/>
<path d="M89.9552 3.629H93.8194V23.7901H97.5156V3.629H101.38V0.268813H89.9552V3.629Z" fill="#636969"/>
<path d="M106.704 3.629H113.088V0.268813H103.008V23.7901H113.088V20.4299H106.704V13.5415H111.778V10.1814H106.704V3.629Z" fill="#636969"/>
<path d="M122.603 15.02V18.3802C122.603 20.0603 121.864 20.6651 120.688 20.6651C119.512 20.6651 118.772 20.0603 118.772 18.3802V5.67871C118.772 3.99862 119.512 3.36018 120.688 3.36018C121.864 3.36018 122.603 3.99862 122.603 5.67871V8.19885H126.098V5.91393C126.098 2.15052 124.216 0 120.587 0C116.958 0 115.076 2.15052 115.076 5.91393V18.145C115.076 21.9084 116.958 24.0589 120.587 24.0589C124.216 24.0589 126.098 21.9084 126.098 18.145V15.02H122.603Z" fill="#636969"/>
<path d="M132.036 13.7096H136.237V23.7901H140V0.268813H136.237V10.3494H132.036V0.268813H128.34V23.7901H132.036V13.7096Z" fill="#636969"/>
<rect y="0.144363" width="3.73354" height="11.2006" fill="#636969"/>
<rect y="18.8121" width="3.73354" height="4.97805" fill="#636969"/>
<rect x="7.4668" y="0.144363" width="3.73354" height="7.46708" fill="#636969"/>
<rect x="14.9336" y="0.144363" width="3.73354" height="11.2006" fill="#636969"/>
<rect x="7.4668" y="15.0785" width="3.73354" height="8.71159" fill="#636969"/>
<rect x="14.9336" y="18.8121" width="3.73354" height="4.97805" fill="#636969"/>
</svg>
