<svg width="460" height="114" viewBox="0 0 460 114" fill="none" xmlns="http://www.w3.org/2000/svg">
<path d="M266.481 106.824C266.205 106.835 265.99 107.067 266 107.343C266.011 107.619 266.243 107.834 266.519 107.824L266.481 106.824ZM1.5 54.5C1.5 50.9613 3.03274 47.4677 6.02859 44.0473C9.02726 40.6238 13.4724 37.2975 19.2377 34.1131C30.7679 27.7444 47.4855 21.9929 68.1863 17.1567C109.58 7.4861 166.79 1.5 230 1.5V0.5C166.737 0.5 109.447 6.49028 67.9588 16.1829C47.2188 21.0283 30.4001 26.8051 18.7542 33.2377C12.9314 36.4539 8.37864 39.8466 5.27634 43.3884C2.17122 46.9335 0.5 50.6519 0.5 54.5H1.5ZM230 1.5C293.21 1.5 350.42 7.4861 391.814 17.1567C412.515 21.9929 429.232 27.7444 440.762 34.1131C446.528 37.2975 450.973 40.6238 453.971 44.0473C456.967 47.4677 458.5 50.9613 458.5 54.5H459.5C459.5 50.6519 457.829 46.9335 454.724 43.3884C451.621 39.8466 447.069 36.4539 441.246 33.2377C429.6 26.8051 412.781 21.0283 392.041 16.1829C350.553 6.49028 293.263 0.5 230 0.5V1.5ZM458.5 54.5C458.5 60.8844 453.496 67.1314 444.005 72.995C434.542 78.8409 420.763 84.2132 403.541 88.8901C369.105 98.2419 321.02 104.784 266.481 106.824L266.519 107.824C321.105 105.781 369.27 99.2333 403.803 89.8552C421.066 85.1671 434.95 79.7643 444.53 73.8458C454.082 67.945 459.5 61.4381 459.5 54.5H458.5Z" fill="#8B6CCA"/>
<path d="M214.849 107.358C215.047 107.166 215.051 106.849 214.858 106.651L211.72 103.426C211.527 103.228 211.211 103.224 211.013 103.417C210.815 103.609 210.811 103.926 211.003 104.124L213.793 106.99L210.926 109.78C210.728 109.973 210.724 110.289 210.917 110.487C211.109 110.685 211.426 110.689 211.624 110.497L214.849 107.358ZM214.507 106.5C154.436 105.684 101.101 99.6835 62.7976 90.3353C43.6418 85.6602 28.2743 80.1546 17.7076 74.059C7.10603 67.9433 1.5 61.3317 1.5 54.5H0.5C0.5 61.9125 6.55781 68.7815 17.2079 74.9252C27.8929 81.0891 43.3649 86.622 62.5605 91.3068C100.96 100.678 154.375 106.683 214.493 107.5L214.507 106.5Z" fill="#8B6CCA"/>
<path d="M227.534 105.17C227.609 104.66 227.749 104.213 227.954 103.828C228.164 103.443 228.426 103.123 228.741 102.868C229.056 102.608 229.416 102.413 229.821 102.283C230.231 102.148 230.674 102.08 231.149 102.08C231.629 102.08 232.064 102.15 232.454 102.29C232.849 102.425 233.186 102.615 233.466 102.86C233.751 103.105 233.969 103.398 234.119 103.738C234.274 104.078 234.351 104.45 234.351 104.855C234.351 105.2 234.309 105.505 234.224 105.77C234.144 106.03 234.026 106.26 233.871 106.46C233.721 106.66 233.536 106.828 233.316 106.963C233.096 107.098 232.849 107.21 232.574 107.3C233.244 107.495 233.746 107.808 234.081 108.238C234.416 108.663 234.584 109.198 234.584 109.843C234.584 110.363 234.486 110.825 234.291 111.23C234.096 111.635 233.831 111.978 233.496 112.258C233.166 112.538 232.779 112.753 232.334 112.903C231.894 113.048 231.426 113.12 230.931 113.12C230.376 113.12 229.896 113.055 229.491 112.925C229.086 112.79 228.736 112.6 228.441 112.355C228.151 112.105 227.909 111.805 227.714 111.455C227.519 111.105 227.354 110.713 227.219 110.278L227.916 109.985C228.101 109.905 228.276 109.883 228.441 109.918C228.611 109.953 228.734 110.045 228.809 110.195C228.889 110.355 228.979 110.528 229.079 110.713C229.179 110.893 229.306 111.06 229.461 111.215C229.621 111.365 229.816 111.493 230.046 111.598C230.281 111.698 230.569 111.748 230.909 111.748C231.254 111.748 231.554 111.693 231.809 111.583C232.069 111.468 232.284 111.323 232.454 111.148C232.629 110.968 232.759 110.768 232.844 110.548C232.929 110.328 232.971 110.11 232.971 109.895C232.971 109.625 232.939 109.378 232.874 109.153C232.809 108.923 232.681 108.728 232.491 108.568C232.306 108.408 232.041 108.283 231.696 108.193C231.356 108.098 230.909 108.05 230.354 108.05V106.888C230.809 106.883 231.191 106.838 231.501 106.753C231.816 106.663 232.066 106.543 232.251 106.393C232.441 106.238 232.576 106.053 232.656 105.838C232.741 105.623 232.784 105.388 232.784 105.133C232.784 104.858 232.741 104.615 232.656 104.405C232.571 104.195 232.451 104.02 232.296 103.88C232.146 103.735 231.966 103.628 231.756 103.558C231.546 103.488 231.314 103.453 231.059 103.453C230.814 103.453 230.586 103.488 230.376 103.558C230.171 103.628 229.986 103.725 229.821 103.85C229.661 103.975 229.526 104.125 229.416 104.3C229.306 104.47 229.226 104.658 229.176 104.863C229.106 105.068 229.011 105.205 228.891 105.275C228.776 105.345 228.606 105.36 228.381 105.32L227.534 105.17Z" fill="#8B6CCA"/>
<path d="M239.985 111.785C240.31 111.785 240.607 111.733 240.877 111.628C241.147 111.518 241.377 111.368 241.567 111.178C241.762 110.988 241.912 110.763 242.017 110.503C242.122 110.243 242.175 109.96 242.175 109.655C242.175 109.325 242.122 109.03 242.017 108.77C241.917 108.505 241.772 108.283 241.582 108.103C241.397 107.923 241.172 107.785 240.907 107.69C240.647 107.59 240.36 107.54 240.045 107.54C239.72 107.54 239.425 107.595 239.16 107.705C238.9 107.815 238.677 107.965 238.492 108.155C238.307 108.345 238.165 108.568 238.065 108.823C237.965 109.078 237.915 109.348 237.915 109.633C237.915 109.953 237.96 110.245 238.05 110.51C238.14 110.775 238.272 111.003 238.447 111.193C238.622 111.378 238.837 111.523 239.092 111.628C239.352 111.733 239.65 111.785 239.985 111.785ZM239.392 106.175C239.312 106.275 239.235 106.37 239.16 106.46C239.09 106.55 239.02 106.64 238.95 106.73C239.18 106.6 239.432 106.498 239.707 106.423C239.982 106.348 240.277 106.31 240.592 106.31C241.012 106.31 241.415 106.38 241.8 106.52C242.185 106.655 242.522 106.86 242.812 107.135C243.107 107.405 243.342 107.743 243.517 108.148C243.692 108.548 243.78 109.01 243.78 109.535C243.78 110.035 243.687 110.503 243.502 110.938C243.322 111.373 243.067 111.753 242.737 112.078C242.407 112.398 242.01 112.653 241.545 112.843C241.085 113.028 240.575 113.12 240.015 113.12C239.455 113.12 238.95 113.03 238.5 112.85C238.05 112.67 237.665 112.418 237.345 112.093C237.03 111.763 236.787 111.368 236.617 110.908C236.447 110.448 236.362 109.935 236.362 109.37C236.362 108.88 236.467 108.368 236.677 107.833C236.887 107.298 237.212 106.735 237.652 106.145L240.307 102.583C240.387 102.478 240.502 102.388 240.652 102.313C240.807 102.238 240.98 102.2 241.17 102.2H242.595L239.392 106.175Z" fill="#8B6CCA"/>
<path d="M252.939 107.6C252.939 108.545 252.836 109.363 252.631 110.053C252.431 110.743 252.154 111.315 251.799 111.77C251.444 112.225 251.026 112.563 250.546 112.783C250.066 113.003 249.549 113.113 248.994 113.113C248.439 113.113 247.921 113.003 247.441 112.783C246.961 112.563 246.544 112.225 246.189 111.77C245.839 111.315 245.564 110.743 245.364 110.053C245.164 109.363 245.064 108.545 245.064 107.6C245.064 106.655 245.164 105.838 245.364 105.148C245.564 104.453 245.839 103.88 246.189 103.43C246.544 102.975 246.961 102.638 247.441 102.418C247.921 102.193 248.439 102.08 248.994 102.08C249.549 102.08 250.066 102.193 250.546 102.418C251.026 102.638 251.444 102.975 251.799 103.43C252.154 103.88 252.431 104.453 252.631 105.148C252.836 105.838 252.939 106.655 252.939 107.6ZM251.274 107.6C251.274 106.8 251.209 106.135 251.079 105.605C250.954 105.07 250.786 104.643 250.576 104.323C250.366 104.003 250.124 103.775 249.849 103.64C249.574 103.505 249.289 103.438 248.994 103.438C248.694 103.438 248.406 103.505 248.131 103.64C247.861 103.775 247.621 104.003 247.411 104.323C247.201 104.643 247.034 105.07 246.909 105.605C246.784 106.135 246.721 106.8 246.721 107.6C246.721 108.4 246.784 109.068 246.909 109.603C247.034 110.133 247.201 110.558 247.411 110.878C247.621 111.198 247.861 111.425 248.131 111.56C248.406 111.695 248.694 111.763 248.994 111.763C249.289 111.763 249.574 111.695 249.849 111.56C250.124 111.425 250.366 111.198 250.576 110.878C250.786 110.558 250.954 110.133 251.079 109.603C251.209 109.068 251.274 108.4 251.274 107.6Z" fill="#8B6CCA"/>
</svg>
