<svg width="17" height="14" viewBox="0 0 17 14" fill="none" xmlns="http://www.w3.org/2000/svg">
<g clip-path="url(#clip0)">
<path d="M16.2285 2.28024C15.6384 2.53406 15.0481 2.69258 14.4583 2.75625C15.1245 2.35651 15.5751 1.79179 15.81 1.06212C15.2005 1.42372 14.5502 1.67111 13.8587 1.80442C13.2495 1.15723 12.5009 0.833496 11.6124 0.833496C10.7622 0.833496 10.0374 1.13326 9.43748 1.73291C8.83798 2.33254 8.53818 3.05741 8.53818 3.90763C8.53818 4.13601 8.56352 4.37087 8.61432 4.61196C7.35794 4.54852 6.17935 4.23286 5.07839 3.66497C3.97748 3.09701 3.04315 2.34035 2.27542 1.39495C1.99622 1.87073 1.85658 2.38795 1.85658 2.9463C1.85658 3.47295 1.98029 3.9616 2.22788 4.41211C2.4753 4.86255 2.8085 5.22735 3.2273 5.50658C2.7323 5.48751 2.26911 5.3574 1.83771 5.11628V5.15435C1.83771 5.89679 2.07089 6.54862 2.53721 7.11034C3.00359 7.672 3.59215 8.02553 4.30275 8.17154C4.03622 8.24125 3.7665 8.27615 3.4937 8.27615C3.31601 8.27615 3.12246 8.26031 2.91311 8.22881C3.1098 8.84417 3.4715 9.35 3.99808 9.74683C4.52476 10.1433 5.12122 10.3477 5.78749 10.3607C4.67078 11.2362 3.39859 11.674 1.97092 11.674C1.69803 11.674 1.45064 11.6616 1.22852 11.6361C2.65622 12.556 4.2298 13.016 5.94937 13.016C7.04074 13.016 8.0655 12.8432 9.02331 12.4973C9.98165 12.1517 10.8001 11.6884 11.4791 11.1077C12.1579 10.5272 12.7433 9.85933 13.2351 9.10426C13.7267 8.34916 14.0931 7.56085 14.3344 6.73917C14.5754 5.91732 14.696 5.09421 14.696 4.2692C14.696 4.09151 14.6928 3.95833 14.6864 3.86945C15.2894 3.43185 15.8033 2.90193 16.2285 2.28024Z" fill="#C3C3C3"/>
</g>
<defs>
<clipPath id="clip0">
<rect width="15.8333" height="12.5" fill="white" transform="translate(0.619141 0.833496)"/>
</clipPath>
</defs>
</svg>
