<svg width="18" height="11" viewBox="0 0 18 11" fill="none" xmlns="http://www.w3.org/2000/svg">
<g clip-path="url(#clip0)">
<path d="M17.4709 9.08726C17.4507 9.04376 17.4319 9.00768 17.4144 8.97876C17.1252 8.45799 16.5727 7.81875 15.757 7.06088L15.7397 7.04352L15.7312 7.03501L15.7224 7.02629H15.7137C15.3434 6.67339 15.109 6.4361 15.0108 6.31462C14.8312 6.0832 14.791 5.84895 14.8892 5.61161C14.9585 5.43229 15.2191 5.05358 15.6702 4.47498C15.9074 4.16833 16.0953 3.92257 16.2342 3.73741C17.2351 2.40677 17.669 1.55647 17.5358 1.18619L17.4842 1.09966C17.4494 1.04756 17.3597 0.999903 17.2152 0.95644C17.0705 0.913068 16.8854 0.905896 16.6597 0.9348L14.1607 0.952063C14.1202 0.937718 14.0623 0.939055 13.9871 0.95644C13.9118 0.973825 13.8742 0.982548 13.8742 0.982548L13.8307 1.00428L13.7962 1.03039C13.7672 1.04765 13.7354 1.07802 13.7007 1.12142C13.6661 1.16467 13.6372 1.21543 13.6141 1.27327C13.342 1.97326 13.0327 2.62409 12.6855 3.2257C12.4714 3.58444 12.2748 3.89534 12.0953 4.15858C11.916 4.42173 11.7656 4.6156 11.6442 4.73989C11.5226 4.86429 11.4129 4.96395 11.3143 5.03924C11.216 5.11455 11.1409 5.14637 11.0888 5.13473C11.0367 5.1231 10.9877 5.11155 10.9412 5.1C10.8602 5.0479 10.7952 4.97705 10.7461 4.88739C10.6967 4.79773 10.6636 4.68488 10.6462 4.54892C10.6289 4.41288 10.6187 4.29586 10.6158 4.19748C10.6131 4.09922 10.6143 3.96023 10.6202 3.7809C10.6262 3.60149 10.6289 3.4801 10.6289 3.41645C10.6289 3.19659 10.6332 2.95796 10.6418 2.70053C10.6506 2.44309 10.6577 2.23912 10.6636 2.08885C10.6695 1.93843 10.6722 1.7793 10.6722 1.61152C10.6722 1.44375 10.662 1.31217 10.6418 1.21667C10.6219 1.1213 10.5913 1.02872 10.551 0.938963C10.5104 0.849303 10.451 0.779943 10.3731 0.730706C10.295 0.681528 10.1979 0.642503 10.0824 0.613508C9.77574 0.544118 9.38525 0.506582 8.91079 0.500746C7.83482 0.489197 7.14345 0.558677 6.83684 0.709096C6.71535 0.772649 6.60542 0.859484 6.50713 0.969327C6.40297 1.09665 6.38844 1.16613 6.46364 1.17756C6.81079 1.22956 7.05655 1.35396 7.2012 1.55064L7.25333 1.65486C7.29387 1.73005 7.33435 1.86318 7.37487 2.05405C7.41533 2.24492 7.44144 2.45607 7.45292 2.68736C7.48179 3.10975 7.48179 3.47131 7.45292 3.77209C7.42395 4.07299 7.3966 4.30723 7.3705 4.475C7.34439 4.64278 7.30536 4.77873 7.25333 4.88283C7.2012 4.98696 7.16652 5.0506 7.14914 5.0737C7.13178 5.0968 7.11731 5.11136 7.10583 5.11707C7.03063 5.14589 6.95243 5.16057 6.87149 5.16057C6.79043 5.16057 6.69214 5.12002 6.57645 5.039C6.46081 4.95796 6.34079 4.84666 6.21638 4.7049C6.09198 4.56312 5.95169 4.36498 5.79543 4.11046C5.6393 3.85595 5.4773 3.55514 5.30952 3.20805L5.17071 2.95632C5.08394 2.79438 4.9654 2.55859 4.81499 2.24915C4.66448 1.93959 4.53144 1.64015 4.41579 1.35089C4.36956 1.22941 4.30011 1.13692 4.20757 1.07327L4.16414 1.04717C4.13526 1.02407 4.08891 0.999538 4.02533 0.9734C3.96165 0.947292 3.89521 0.928569 3.82573 0.917049L1.44805 0.934313C1.20509 0.934313 1.04023 0.989357 0.953426 1.09929L0.918686 1.15129C0.901332 1.18026 0.892578 1.22652 0.892578 1.29019C0.892578 1.35384 0.909933 1.43195 0.944673 1.52444C1.29177 2.34021 1.66923 3.12695 2.07705 3.88479C2.48488 4.64263 2.83927 5.25309 3.14001 5.71562C3.44082 6.17849 3.74744 6.61534 4.05985 7.02595C4.37227 7.43673 4.57907 7.69997 4.68025 7.81561C4.78155 7.93148 4.86112 8.0181 4.91896 8.07594L5.13595 8.28416C5.27479 8.42304 5.47866 8.58935 5.74768 8.78311C6.01675 8.97701 6.31464 9.16785 6.6415 9.35601C6.96841 9.54393 7.34874 9.69718 7.78266 9.81576C8.21654 9.93443 8.63883 9.9821 9.04959 9.9591H10.0476C10.2499 9.9416 10.4032 9.87801 10.5075 9.76818L10.542 9.72468C10.5652 9.6901 10.587 9.63651 10.607 9.56426C10.6273 9.49201 10.6374 9.41235 10.6374 9.32568C10.6315 9.07693 10.6504 8.85276 10.6937 8.65324C10.737 8.45373 10.7862 8.30331 10.8414 8.20201C10.8965 8.1008 10.9587 8.0154 11.0279 7.94615C11.0972 7.87677 11.1467 7.83474 11.1757 7.82026C11.2045 7.8057 11.2275 7.79583 11.2448 7.7899C11.3837 7.74365 11.5471 7.78845 11.7352 7.92451C11.9233 8.06047 12.0997 8.22833 12.2647 8.42784C12.4296 8.62752 12.6277 8.8516 12.859 9.10026C13.0906 9.3491 13.293 9.53401 13.4664 9.65568L13.6399 9.75985C13.7558 9.82926 13.9062 9.89293 14.0914 9.95076C14.2762 10.0086 14.4382 10.0231 14.5772 9.99418L16.7986 9.95951C17.0183 9.95951 17.1892 9.9231 17.3105 9.85093C17.4321 9.7786 17.5042 9.69893 17.5275 9.61235C17.5507 9.5256 17.552 9.42718 17.5319 9.3171C17.5113 9.20735 17.4911 9.1306 17.4709 9.08726Z" fill="#C3C3C3"/>
</g>
<defs>
<clipPath id="clip0">
<rect width="16.6667" height="10" fill="white" transform="translate(0.892578 0.499512)"/>
</clipPath>
</defs>
</svg>
