<svg width="9" height="15" viewBox="0 0 9 15" fill="none" xmlns="http://www.w3.org/2000/svg">
<g clip-path="url(#clip0)">
<path d="M8.31609 0.003121L6.37094 0C4.18561 0 2.77335 1.44893 2.77335 3.69152V5.39356H0.817577C0.648575 5.39356 0.511719 5.53057 0.511719 5.69957V8.16563C0.511719 8.33467 0.648731 8.4715 0.817577 8.4715H2.77335V14.6942C2.77335 14.8632 2.91021 15 3.07921 15H5.63094C5.79994 15 5.9368 14.863 5.9368 14.6942V8.4715H8.22356C8.39256 8.4715 8.52942 8.33467 8.52942 8.16563L8.53035 5.69957C8.53035 5.61842 8.49805 5.54072 8.44078 5.48328C8.38351 5.42586 8.30549 5.39356 8.22434 5.39356H5.9368V3.95072C5.9368 3.25723 6.10206 2.90518 7.00544 2.90518L8.31579 2.90472C8.48463 2.90472 8.62149 2.7677 8.62149 2.59886V0.308979C8.62149 0.140289 8.48479 0.0034331 8.31609 0.003121Z" fill="#C3C3C3"/>
</g>
<defs>
<clipPath id="clip0">
<rect width="8.33333" height="15" fill="white" transform="translate(0.511719)"/>
</clipPath>
</defs>
</svg>
