<svg width="14" height="13" viewBox="0 0 14 13" fill="none" xmlns="http://www.w3.org/2000/svg">
<path d="M6.91218 4.16296C5.76531 4.16296 4.82937 5.0989 4.82937 6.24578C4.82937 7.39265 5.76531 8.32859 6.91218 8.32859C8.05906 8.32859 8.995 7.39265 8.995 6.24578C8.995 5.0989 8.05906 4.16296 6.91218 4.16296ZM13.1591 6.24578C13.1591 5.38328 13.1669 4.52859 13.1184 3.66765C13.07 2.66765 12.8419 1.78015 12.1106 1.0489C11.3778 0.31609 10.4919 0.0895272 9.49187 0.0410897C8.62937 -0.00734777 7.77468 0.000464756 6.91375 0.000464756C6.05125 0.000464756 5.19656 -0.00734777 4.33562 0.0410897C3.33562 0.0895272 2.44812 0.317652 1.71687 1.0489C0.984058 1.78171 0.757496 2.66765 0.709058 3.66765C0.660621 4.53015 0.668434 5.38484 0.668434 6.24578C0.668434 7.10671 0.660621 7.96296 0.709058 8.8239C0.757496 9.8239 0.985621 10.7114 1.71687 11.4427C2.44968 12.1755 3.33562 12.402 4.33562 12.4505C5.19812 12.4989 6.05281 12.4911 6.91375 12.4911C7.77625 12.4911 8.63093 12.4989 9.49187 12.4505C10.4919 12.402 11.3794 12.1739 12.1106 11.4427C12.8434 10.7098 13.07 9.8239 13.1184 8.8239C13.1684 7.96296 13.1591 7.10828 13.1591 6.24578V6.24578ZM6.91218 9.45046C5.13875 9.45046 3.7075 8.01921 3.7075 6.24578C3.7075 4.47234 5.13875 3.04109 6.91218 3.04109C8.68562 3.04109 10.1169 4.47234 10.1169 6.24578C10.1169 8.01921 8.68562 9.45046 6.91218 9.45046ZM10.2481 3.65828C9.83406 3.65828 9.49968 3.3239 9.49968 2.90984C9.49968 2.49578 9.83406 2.1614 10.2481 2.1614C10.6622 2.1614 10.9966 2.49578 10.9966 2.90984C10.9967 3.00816 10.9774 3.10554 10.9398 3.1964C10.9023 3.28726 10.8471 3.36982 10.7776 3.43934C10.7081 3.50886 10.6255 3.56399 10.5347 3.60156C10.4438 3.63913 10.3464 3.6584 10.2481 3.65828V3.65828Z" fill="#C3C3C3"/>
</svg>
